<svg width="14" height="16" viewBox="0 0 14 16" fill="none" xmlns="http://www.w3.org/2000/svg">
<path d="M13.0475 7.09271H3.05324L7.41956 2.11691C7.76851 1.71925 7.76851 1.06669 7.41956 0.669034C7.33679 0.574511 7.23847 0.49952 7.13023 0.448353C7.02199 0.397186 6.90595 0.37085 6.78877 0.37085C6.67159 0.37085 6.55556 0.397186 6.44732 0.448353C6.33908 0.49952 6.24076 0.574511 6.15798 0.669034L0.261661 7.3884C0.178716 7.48273 0.11291 7.59478 0.0680105 7.71813C0.0231113 7.84147 0 7.9737 0 8.10724C0 8.24078 0.0231113 8.37301 0.0680105 8.49636C0.11291 8.61971 0.178716 8.73175 0.261661 8.82608L6.15798 15.5454C6.24082 15.6398 6.33916 15.7147 6.44739 15.7658C6.55562 15.8169 6.67162 15.8432 6.78877 15.8432C6.90592 15.8432 7.02192 15.8169 7.13015 15.7658C7.23838 15.7147 7.33673 15.6398 7.41956 15.5454C7.5024 15.4511 7.56811 15.339 7.61294 15.2156C7.65777 15.0923 7.68084 14.9601 7.68084 14.8266C7.68084 14.6931 7.65777 14.5609 7.61294 14.4376C7.56811 14.3142 7.5024 14.2022 7.41956 14.1078L3.05324 9.13197H13.0475C13.5396 9.13197 13.9422 8.67314 13.9422 8.11234C13.9422 7.55154 13.5396 7.09271 13.0475 7.09271Z" fill="#131313"/>
</svg>
