<svg width="15" height="16" viewBox="0 0 15 16" fill="none" xmlns="http://www.w3.org/2000/svg">
<path d="M1.31576 7.09271H11.31L6.94369 2.11691C6.59474 1.71925 6.59474 1.06669 6.94369 0.669034C7.02646 0.574511 7.12478 0.49952 7.23302 0.448353C7.34126 0.397186 7.4573 0.37085 7.57448 0.37085C7.69166 0.37085 7.80769 0.397186 7.91593 0.448353C8.02417 0.49952 8.1225 0.574511 8.20527 0.669034L14.1016 7.3884C14.1846 7.48273 14.2504 7.59478 14.2953 7.71813C14.3402 7.84147 14.3633 7.9737 14.3633 8.10724C14.3633 8.24078 14.3402 8.37301 14.2953 8.49636C14.2504 8.61971 14.1846 8.73175 14.1016 8.82608L8.20527 15.5454C8.12244 15.6398 8.02409 15.7147 7.91586 15.7658C7.80763 15.8169 7.69163 15.8432 7.57448 15.8432C7.45733 15.8432 7.34133 15.8169 7.2331 15.7658C7.12486 15.7147 7.02652 15.6398 6.94369 15.5454C6.86085 15.451 6.79514 15.339 6.75031 15.2156C6.70548 15.0923 6.6824 14.9601 6.6824 14.8266C6.6824 14.6931 6.70548 14.5609 6.75031 14.4376C6.79514 14.3142 6.86085 14.2022 6.94369 14.1078L11.31 9.13197H1.31576C0.823654 9.13197 0.421021 8.67314 0.421021 8.11234C0.421021 7.55154 0.823654 7.09271 1.31576 7.09271Z" fill="#131313"/>
</svg>
